<?xml version="1.0" encoding="UTF-8"?>
<svg width="227px" height="40px" viewBox="0 0 227 40" version="1.1" xmlns="http://www.w3.org/2000/svg" xmlns:xlink="http://www.w3.org/1999/xlink">
    <!-- Generator: Sketch 61.2 (89653) - https://sketch.com -->
    <title>SnackShopLogo_V4</title>
    <desc>Created with Sketch.</desc>
    <g id="Symbols" stroke="none" stroke-width="1" fill="none" fill-rule="evenodd">
        <g id="logo/dark" fill-rule="nonzero">
            <g id="SnackShopLogo_V4">
                <g id="Group" transform="translate(51.000000, 0.000000)">
                    <path d="M18.8,38.8 L18.2,38.8 L13.6,38.8 L13,38.8 L13,38.2 L13,26.3 L9,26.3 L9,38.2 L9,38.8 L8.4,38.8 L3.8,38.8 L3.2,38.8 L3.2,38.2 L3.2,9.9 C3.2,5.7 5.3,3.4 9.3,3.4 L11.8,1.6 C15.8,1.6 18.9,5.6 18.9,9.8 L18.9,38.1 L18.8,38.8 L18.8,38.8 Z M9,20.9 L12.9,20.9 L12.9,10.2 C12.9,9.2 12.5,8.8 11.5,8.8 L10.3,8.8 C9.8,8.8 9.5,8.9 9.3,9.1 C9.1,9.3 9,9.7 9,10.1 L9,20.9 L9,20.9 Z" id="Shape" fill="#A9B21C"></path>
                    <path d="M11.6,8.9 L10.4,8.9 C9.9,8.9 9.6,9 9.4,9.2 L6.7,6.5 L7.6,6 L10.6,6.1 L11.6,8.9 Z" id="Path" fill="#6F7984"></path>
                    <polygon id="Path" fill="#6F7984" points="6.4 23.8 9 26.3 14.8 26.3 12.3 23.8"></polygon>
                    <polygon id="Path" fill="#FFFFFF" points="6.4 19.2 9 21.8 9 22.3 6.4 19.7"></polygon>
                    <path d="M16.2,36.3 L15.6,36.3 L11,36.3 L10.4,36.3 L10.4,35.7 L10.4,23.8 L6.5,23.8 L6.5,35.7 L6.5,36.3 L5.9,36.3 L1.3,36.3 L0.7,36.3 L0.7,35.7 L0.7,7.4 C0.7,3.2 2.8,0.9 6.8,0.9 L10.2,0.9 C14.2,0.9 16.3,3.1 16.3,7.4 L16.3,35.7 L16.3,36.3 L16.2,36.3 L16.2,36.3 Z M6.4,18.4 L10.3,18.4 L10.3,7.7 C10.3,6.7 9.9,6.3 8.9,6.3 L7.7,6.3 C6.7,6.3 6.3,6.7 6.3,7.7 L6.4,18.4 L6.4,18.4 Z" id="Shape" fill="#A9B21C"></path>
                    <polygon id="Path" fill="#6F7984" points="0.6 36.3 3.2 38.8 9 38.8 6.4 36.3"></polygon>
                    <polygon id="Path" fill="#6F7984" points="10.4 36.3 12.9 38.8 18.8 38.8 16.2 36.3"></polygon>
                </g>
                <g id="Group" transform="translate(208.000000, 1.000000)">
                    <path d="M9.1,37.9 L8.5,37.9 L3.9,37.9 L3.3,37.9 L3.3,37.3 L3.3,3.2 L3.3,2.6 L3.9,2.6 L11.2,0.8 C15.2,0.8 18.3,4.8 18.3,9 L18.3,19.1 C18.3,23.3 16.2,25.5 12.2,25.5 L9,25.5 L9,37.2 L9,37.9 L9.1,37.9 L9.1,37.9 Z M9.1,20.1 L11.4,20.1 C12.1,20.1 12.6,19.9 12.6,18.7 L12.6,9.2 C12.6,8.2 12.2,7.8 11.2,7.8 L9.2,7.8 L9.1,20.1 L9.1,20.1 Z" id="Shape" fill="#A9B21C"></path>
                    <g transform="translate(6.000000, 1.000000)" fill="#FFFFFF" id="Path">
                        <polygon points="0.5 0 3.1 2.6 3.1 3.1 0.5 0.5"></polygon>
                        <g transform="translate(0.000000, 17.000000)">
                            <polygon points="0.5 3.4 3.1 5.9 3.1 6.4 0.5 3.9"></polygon>
                            <polygon points="0.5 0.6 3.1 3.1 3.1 3.6 0.5 1.1"></polygon>
                        </g>
                    </g>
                    <path d="M6.5,23 L13.7,14.5 L18.3,19.1 C18.3,23.3 16.2,25.5 12.2,25.5 L9,25.5 L6.5,23 Z" id="Path" fill="#6F7984"></path>
                    <polygon id="Path" fill="#6F7984" points="6.5 5.4 9.1 7.9 12.2 7.9 9.7 5.4"></polygon>
                    <path d="M6.5,35.3 L5.9,35.3 L1.3,35.3 L0.7,35.3 L0.7,34.7 L0.7,0.6 L0.7,0 L1.3,0 L9.6,0 C13.6,0 15.7,2.2 15.7,6.5 L15.7,16.6 C15.7,20.8 13.6,23 9.6,23 L6.4,23 L6.4,34.7 L6.4,35.3 L6.5,35.3 L6.5,35.3 Z M6.5,17.6 L8.8,17.6 C9.5,17.6 10,17.4 10,16.2 L10,6.7 C10,5.7 9.6,5.3 8.6,5.3 L6.6,5.3 L6.6,17.6 L6.5,17.6 Z" id="Shape" fill="#A9B21C"></path>
                    <polygon id="Path" fill="#6F7984" points="0.7 35.3 3.2 37.9 9.1 37.9 6.5 35.3"></polygon>
                </g>
                <g id="Group" transform="translate(0.000000, 1.000000)">
                    <path d="M11.5,37.9 L8.7,37.9 C5.9,37.9 1,36.7 1,31 L2.6,29.3 L2.6,28.7 L3.2,28.7 L5.8,26.2 L8.3,28.7 L8.3,29.3 L8.3,31.2 C8.3,32.2 8.7,32.6 9.7,32.6 L10.5,32.6 C11.2,32.6 11.7,32.4 11.7,31.2 L11.7,25.4 C11.7,24.9 11.6,24.6 11.5,24.6 C11.3,24.5 11,24.2 10.4,23.8 L6.1,21.4 C5.1,20.9 4.4,20.4 3.9,20.1 C3.4,19.7 1,17.6 0.8,17 C0.6,16.4 2.5,17.1 2.5,16.1 L2.5,9.1 C2.5,4.9 4.6,2.6 8.6,2.6 L10.7,0.9 C14.7,0.9 17.5,4.9 17.5,9.1 L17.5,12.4 L17.5,13 L17,13 L12.4,13 L11.8,13 L11.8,12.4 L11.8,9.4 C11.8,8.4 11.4,8 10.4,8 L9.7,8 C8.8,8 8.4,8.4 8.4,9.4 L8.4,15.1 C8.4,15.8 8.6,15.9 8.6,15.9 C8.8,16 9.1,16.3 9.7,16.7 L12.6,17.2 C15.6,19 16.9,21.1 17.2,21.7 C17.5,22.2 17.6,23.1 17.6,24.4 L17.6,31.7 C17.7,35.7 15.5,37.9 11.5,37.9 L11.5,37.9 Z" id="Path" fill="#A9B21C"></path>
                    <path d="M10.5,8 L9.8,8 C8.9,8 8.5,8.4 8.5,9.4 L4,4.9 L10.2,4.9 L10.5,8 Z" id="Path" fill="#6F7984"></path>
                    <path d="M1,31 C1,36.7 5.9,37.9 8.7,37.9 L11.5,37.9 L8.6,35 L1,31 Z" id="Path" fill="#6F7984"></path>
                    <path d="M9,35.4 L6.2,35.4 C3.4,35.4 0.1,34.2 0.1,28.5 L0.1,26.8 L0.1,26.2 L0.7,26.2 L5.3,26.2 L5.9,26.2 L5.9,26.8 L5.9,28.7 C5.9,29.7 6.3,30.1 7.3,30.1 L8.1,30.1 C8.8,30.1 9.3,29.9 9.3,28.7 L9.3,22.9 C9.3,22.4 9.2,22.1 9.1,22.1 C8.9,22 8.6,21.7 8,21.3 L3.7,18.9 C2.7,18.4 2,17.9 1.5,17.6 C1,17.2 0.6,16.6 0.4,16 C0.2,15.4 0.1,14.6 0.1,13.6 L0.1,6.6 C0.1,2.4 2.2,0.1 6.2,0.1 L9,0.1 C13,0.1 15.1,2.3 15.1,6.6 L15.1,9.9 L15.1,10.5 L14.5,10.5 L9.9,10.5 L9.3,10.5 L9.3,9.9 L9.3,6.9 C9.3,5.9 8.9,5.5 7.9,5.5 L7.2,5.5 C6.3,5.5 5.9,5.9 5.9,6.9 L5.9,12.6 C5.9,13.3 6.1,13.4 6.1,13.4 C6.3,13.5 6.6,13.8 7.2,14.2 L11.5,16.5 C12.5,17.1 13.2,17.5 13.6,17.8 C14.1,18.2 14.4,18.6 14.7,19.1 C15,19.6 15.1,20.5 15.1,21.8 L15.1,29 C15.1,33.2 13,35.4 9,35.4 L9,35.4 Z" id="Path" fill="#A9B21C"></path>
                    <polygon id="Path" fill="#6F7984" points="9.3 10.5 11.8 13 17.7 13 15.1 10.5"></polygon>
                </g>
                <g id="Group" transform="translate(77.000000, 1.000000)">
                    <g id="Path">
                        <path d="M12.4,37.8 L9.5,37.8 C5.5,37.8 3.4,35.6 3.4,31.4 L3.4,8.9 C3.4,4.7 5.5,2.5 9.5,2.5 L11.4,0.7 C15.4,0.7 18.6,4.7 18.6,8.9 L18.6,12.7 L18.6,13.3 L18,13.3 L13.4,13.3 L12.8,13.3 L12.8,12.7 L12.8,9.2 C12.8,8.2 12.4,7.8 11.4,7.8 L10.5,7.8 C9.8,7.8 9.3,8 9.3,9.2 L9.3,31 C9.3,32.1 9.8,32.4 10.5,32.4 L11.6,32.4 C12.3,32.4 12.8,32.2 12.8,31 L12.8,29.1 L12.8,28.5 L13.4,28.5 L16,26 L18.5,28.5 L18.5,29.1 L18.5,31.3 C18.5,35.6 16.4,37.8 12.4,37.8 L12.4,37.8 Z" fill="#A9B21C"></path>
                        <path d="M11.8,7.9 L10.6,7.9 C10.1,7.9 9.8,8 9.6,8.2 L6.9,5.5 L7.8,5 L10.8,5.1 L11.8,7.9 Z" fill="#6F7984"></path>
                        <path d="M1.2,31.4 C1.2,35.6 5.5,37.8 9.5,37.8 L12.4,37.8 L8.4,33.8 L1.2,31.4 Z" fill="#6F7984"></path>
                        <path d="M9.9,35.3 L7,35.3 C3,35.3 0.9,33.1 0.9,28.9 L0.9,6.4 C0.9,2.2 3,0 7,0 L9.9,0 C13.9,0 16,2.2 16,6.4 L16,10.2 L16,10.8 L15.4,10.8 L10.8,10.8 L10.2,10.8 L10.2,10.2 L10.2,6.7 C10.2,5.7 9.8,5.3 8.8,5.3 L7.9,5.3 C7.2,5.3 6.7,5.5 6.7,6.7 L6.7,28.5 C6.7,29.6 7.2,29.9 7.9,29.9 L9,29.9 C9.7,29.9 10.2,29.7 10.2,28.5 L10.2,26.6 L10.2,26 L10.8,26 L15.4,26 L16,26 L16,26.6 L16,28.8 C16,33.1 13.9,35.3 9.9,35.3 L9.9,35.3 Z" fill="#A9B21C"></path>
                        <polygon fill="#6F7984" points="10.1 10.8 12.7 13.4 18.5 13.4 16 10.8"></polygon>
                    </g>
                    <polygon id="Path" fill="#FFFFFF" points="6.7 30.3 9.2 32.9 9.2 33.3 6.7 30.8"></polygon>
                </g>
                <g id="Group" transform="translate(154.000000, 1.000000)">
                    <polygon id="Path" fill="#A9B21C" points="19.5 37.9 18.8 37.9 14.3 37.9 13.6 37.9 13.6 37.3 13.6 22.4 9.3 22.4 9.3 37.3 9.3 37.9 8.6 37.9 4.1 37.9 3.5 37.9 3.5 37.3 3.5 3.2 3.5 2.5 4.1 2.5 6.7 0 9.3 2.5 9.3 3.2 9.3 17 13.6 17 13.6 3.2 13.6 2.5 14.3 2.5 16.9 0 19.5 2.5 19.5 3.2 19.5 37.3"></polygon>
                    <g transform="translate(6.000000, 14.000000)" fill="#FFFFFF" id="Path">
                        <g>
                            <polygon points="0.7 1.8 3.3 4.4 3.3 4.9 0.7 2.3"></polygon>
                            <polygon points="0.7 0.5 3.3 3 3.3 3.5 0.7 0.9"></polygon>
                        </g>
                        <g transform="translate(0.000000, 3.000000)">
                            <polygon points="0.7 1.6 3.3 4.2 3.3 4.7 0.7 2.1"></polygon>
                            <polygon points="0.7 0.2 3.3 2.8 3.3 3.3 0.7 0.7"></polygon>
                        </g>
                    </g>
                    <polygon id="Path" fill="#6F7984" points="6.7 19.9 9.3 22.4 15.1 22.4 12.6 19.9"></polygon>
                    <polygon id="Path" fill="#A9B21C" points="16.9 35.4 16.3 35.4 11.7 35.4 11.1 35.4 11.1 34.7 11.1 19.9 6.7 19.9 6.7 34.7 6.7 35.4 6.1 35.4 1.5 35.4 0.9 35.4 0.9 34.7 0.9 0.6 0.9 0 1.5 0 6.1 0 6.7 0 6.7 0.6 6.7 14.5 11.1 14.5 11.1 0.6 11.1 0 11.7 0 16.3 0 16.9 0 16.9 0.6 16.9 34.7"></polygon>
                    <polygon id="Path" fill="#6F7984" points="0.9 35.4 3.5 37.9 9.3 37.9 6.7 35.4"></polygon>
                    <polygon id="Path" fill="#6F7984" points="11.1 35.4 13.6 37.9 19.5 37.9 16.9 35.4"></polygon>
                </g>
                <g id="Group" transform="translate(181.000000, 0.000000)">
                    <path d="M13.8,38.7 L9.5,38.7 C5.5,38.7 3.4,36.5 3.4,32.3 L3.4,9.8 C3.4,5.6 5.5,3.3 9.5,3.3 L13.9,1.7 C17.9,1.7 20,5.5 20,9.8 L20,32.3 C20,36.5 17.9,38.7 13.8,38.7 L13.8,38.7 Z M10.6,8.7 C9.6,8.7 9.2,9.1 9.2,10.1 L9.2,31.9 C9.2,32.9 9.6,33.3 10.6,33.3 L12.9,33.3 C13.6,33.3 14.1,33.1 14.1,31.9 L14.1,10.1 C14.1,9.1 13.7,8.7 12.7,8.7 L10.6,8.7 L10.6,8.7 Z" id="Shape" fill="#A9B21C"></path>
                    <path d="M10.6,8.7 L10.6,8.7 C9.6,8.7 9.2,9.1 9.2,10.1 L5.3,6.2 L9.8,4.9 L12,6.4 L11.6,8.7 L10.6,8.7 L10.6,8.7 Z" id="Path" fill="#6F7984"></path>
                    <path d="M11.2,36.1 L13.9,38.8 L9.6,38.8 C5.6,38.8 1.9,36.6 1.9,32.4 L11.2,36.1 Z" id="Path" fill="#6F7984"></path>
                    <path d="M11.3,36.2 L7,36.2 C3,36.2 0.9,34 0.9,29.8 L0.9,7.3 C0.9,3.1 3,0.8 7,0.8 L11.4,0.8 C15.4,0.8 17.5,3 17.5,7.3 L17.5,29.8 C17.4,33.9 15.3,36.2 11.3,36.2 L11.3,36.2 Z M8.1,6.2 C7.1,6.2 6.7,6.6 6.7,7.6 L6.7,29.4 C6.7,30.4 7.1,30.8 8.1,30.8 L10.4,30.8 C11.1,30.8 11.6,30.6 11.6,29.4 L11.6,7.6 C11.6,6.6 11.2,6.2 10.2,6.2 L8.1,6.2 L8.1,6.2 Z" id="Shape" fill="#A9B21C"></path>
                </g>
                <g id="Group" transform="translate(103.000000, 1.000000)">
                    <polygon id="Path" fill="#A9B21C" points="19.7 38.1 18.8 38.1 14.2 38.1 13.8 38.1 13.6 37.7 8.9 23.9 8.9 37.4 8.9 38.1 8.3 38.1 3.7 38.1 3.1 38.1 3.1 37.4 3.1 3.3 3.1 2.7 3.7 2.7 6.4 0.2 8.9 2.7 8.9 3.3 8.9 16.7 12.7 3.2 12.8 2.7 13.3 2.7 15.8 0.2 18.3 2.7 18.1 3.5 13.3 20.3 19.4 37.2"></polygon>
                    <g transform="translate(6.000000, 14.000000)" fill="#FFFFFF" id="Path">
                        <g>
                            <polygon points="0.3 2 2.9 4.6 2.9 5 0.3 2.5"></polygon>
                            <polygon points="0.3 0.6 2.9 3.2 2.9 3.6 0.3 1.1"></polygon>
                        </g>
                        <g transform="translate(0.000000, 3.000000)">
                            <polygon points="0.3 1.8 2.9 4.3 2.9 4.8 0.3 2.3"></polygon>
                            <polygon points="0.3 0.4 2.9 2.9 2.9 3.4 0.3 0.9"></polygon>
                        </g>
                    </g>
                    <polygon id="Path" fill="#A9B21C" points="17.1 35.5 16.2 35.5 11.7 35.5 11.2 35.5 11.1 35.1 6.4 21.4 6.4 34.9 6.4 35.5 5.7 35.5 1.2 35.5 0.5 35.5 0.5 34.9 0.5 0.8 0.5 0.2 1.2 0.2 5.7 0.2 6.4 0.2 6.4 0.8 6.4 14.1 10.1 0.6 10.2 0.2 10.7 0.2 14.9 0.2 15.8 0.2 15.5 1 10.8 17.7 16.8 34.7"></polygon>
                    <rect id="Rectangle" fill="#0D2E39" x="5.3" y="15.6" width="2.2" height="4.4"></rect>
                    <polygon id="Path" fill="#6F7984" points="0.5 35.5 3.1 38.1 8.9 38.1 6.4 35.5"></polygon>
                    <polygon id="Path" fill="#6F7984" points="11.2 35.5 13.8 38.1 19.6 38.1 17.1 35.5"></polygon>
                    <polygon id="Path" fill="#6F7984" points="18.3 2.7 15.8 0.2 10.8 17.7 13.3 20.3"></polygon>
                </g>
                <g id="Group" transform="translate(25.000000, 0.000000)">
                    <g id="Path">
                        <polygon fill="#A9B21C" points="18.6 38.8 17.9 38.8 13.4 38.8 12.7 38.8 12.7 38.2 12.7 31.5 9.1 20 9.1 38.2 9.1 38.8 8.5 38.8 3.9 38.8 3.3 38.8 3.3 38.2 3.3 4.1 3.3 3.4 3.9 3.4 6.4 0.9 8.9 3.4 9.1 3.9 12.7 16.2 12.7 4.1 12.7 3.4 13.4 3.4 16 0.9 18.6 3.4 18.6 4.1 18.6 38.2"></polygon>
                        <polygon fill="#A9B21C" points="16 36.3 15.4 36.3 10.8 36.3 10.2 36.3 10.2 35.6 10.2 28.9 6.6 17.5 6.6 35.6 6.6 36.3 5.9 36.3 1.4 36.3 0.7 36.3 0.7 35.6 0.7 1.5 0.7 0.9 1.4 0.9 5.9 0.9 6.4 0.9 6.5 1.4 10.2 13.6 10.2 1.5 10.2 0.9 10.8 0.9 15.4 0.9 16 0.9 16 1.5 16 35.6"></polygon>
                        <polygon fill="#6F7984" points="0.7 36.3 3.3 38.8 9.1 38.8 6.5 36.3"></polygon>
                        <polygon fill="#6F7984" points="10.2 36.3 12.7 38.8 18.5 38.8 16 36.3"></polygon>
                    </g>
                </g>
                <g id="Group" transform="translate(129.000000, 1.000000)">
                    <path d="M11.7,37.9 L8.9,37.9 C6.1,37.9 1.2,36.7 1.2,31 L2.8,29.3 L2.8,28.7 L3.4,28.7 L6,26.2 L8.5,28.7 L8.5,29.3 L8.5,31.2 C8.5,32.2 8.9,32.6 9.9,32.6 L10.7,32.6 C11.4,32.6 11.9,32.4 11.9,31.2 L11.9,25.4 C11.9,24.9 11.8,24.6 11.7,24.6 C11.5,24.5 11.2,24.2 10.6,23.8 L6.3,21.4 C5.3,20.9 4.6,20.4 4.1,20.1 C3.6,19.7 1.2,17.6 1,17 C0.8,16.4 2.7,17.1 2.7,16.1 L2.7,9.1 C2.7,4.9 4.8,2.6 8.8,2.6 L10.9,0.9 C14.9,0.9 17.7,4.9 17.7,9.1 L17.7,12.4 L17.7,13 L17.1,13 L12.5,13 L12,13 L12,12.4 L12,9.4 C12,8.4 11.6,8 10.6,8 L9.9,8 C9,8 8.6,8.4 8.6,9.4 L8.6,15.1 C8.6,15.8 8.8,15.9 8.8,15.9 C9,16 9.3,16.3 9.9,16.7 L12.8,17.2 C15.8,19 17.1,21.1 17.4,21.7 C17.7,22.2 17.8,23.1 17.8,24.4 L17.8,31.7 C17.8,35.7 15.7,37.9 11.7,37.9 L11.7,37.9 Z" id="Path" fill="#A9B21C"></path>
                    <path d="M10.6,8 L9.9,8 C9,8 8.6,8.4 8.6,9.4 L4.2,4.9 L10.4,4.9 L10.6,8 Z" id="Path" fill="#6F7984"></path>
                    <path d="M1.2,31 C1.2,36.7 6.1,37.9 8.9,37.9 L11.7,37.9 L8.8,35 L1.2,31 Z" id="Path" fill="#6F7984"></path>
                    <path d="M9.1,35.4 L6.3,35.4 C3.5,35.4 0.2,34.2 0.2,28.5 L0.2,26.8 L0.2,26.2 L0.8,26.2 L5.4,26.2 L6,26.2 L6,26.8 L6,28.7 C6,29.7 6.4,30.1 7.4,30.1 L8.2,30.1 C8.9,30.1 9.4,29.9 9.4,28.7 L9.4,22.9 C9.4,22.4 9.3,22.1 9.2,22.1 C9,22 8.7,21.7 8.1,21.3 L3.8,18.9 C2.8,18.4 2.1,17.9 1.6,17.6 C1.1,17.2 0.7,16.6 0.5,16 C0.3,15.4 0.2,14.6 0.2,13.6 L0.2,6.6 C0.2,2.4 2.3,0.1 6.3,0.1 L9.2,0.1 C13.2,0.1 15.3,2.3 15.3,6.6 L15.3,9.9 L15.3,10.5 L14.7,10.5 L10.1,10.5 L9.5,10.5 L9.5,9.9 L9.5,6.9 C9.5,5.9 9.1,5.5 8.1,5.5 L7.4,5.5 C6.5,5.5 6.1,5.9 6.1,6.9 L6.1,12.6 C6.1,13.3 6.3,13.4 6.3,13.4 C6.5,13.5 6.8,13.8 7.4,14.2 L11.7,16.5 C12.7,17.1 13.4,17.5 13.8,17.8 C14.3,18.2 14.6,18.6 14.9,19.1 C15.2,19.6 15.3,20.5 15.3,21.8 L15.3,29 C15.3,33.2 13.2,35.4 9.1,35.4 L9.1,35.4 Z" id="Path" fill="#A9B21C"></path>
                    <polygon id="Path" fill="#6F7984" points="9.5 10.5 12 13 17.8 13 15.3 10.5"></polygon>
                </g>
                <path d="M56.8,35.6 L52.2,35.6 L52.2,7.3 C52.2,3.4 54,1.5 57.7,1.5 L61.1,1.5 C64.7,1.5 66.6,3.4 66.6,7.3 L66.6,35.6 L62,35.6 L62,23.1 L56.8,23.1 L56.8,35.6 Z M62,19 L62,7.7 C62,6.4 61.3,5.7 60,5.7 L58.8,5.7 C57.5,5.7 56.8,6.4 56.8,7.7 L56.8,19 L62,19 Z" id="Shape" fill="#0D2E39"></path>
                <path d="M209.3,1.6 L217.6,1.6 C221.3,1.6 223.1,3.5 223.1,7.4 L223.1,17.5 C223.1,21.4 221.3,23.3 217.6,23.3 L213.8,23.3 L213.8,35.6 L209.2,35.6 L209.3,1.6 Z M213.9,19.2 L216.8,19.2 C218,19.2 218.6,18.5 218.6,17.2 L218.6,7.7 C218.6,6.4 217.9,5.7 216.6,5.7 L213.9,5.7 L213.9,19.2 L213.9,19.2 Z" id="Shape" fill="#0D2E39"></path>
                <path d="M9.9,10.8 L9.9,7.8 C9.9,6.4 9.2,5.8 7.9,5.8 L7.2,5.8 C5.9,5.8 5.3,6.5 5.3,7.8 L5.3,13.5 C5.3,14.1 5.4,14.6 5.7,14.8 C6,15 6.4,15.3 6.9,15.7 L11.2,18 C12.1,18.5 12.8,19 13.2,19.3 C13.6,19.6 13.9,20 14.1,20.4 C14.3,20.8 14.4,21.6 14.4,22.8 L14.4,30 C14.4,33.8 12.6,35.7 8.9,35.7 L6.1,35.7 C2.5,35.7 0.6,33.6 0.6,29.4 L0.6,27.7 L5.2,27.7 L5.2,29.6 C5.2,30.9 5.9,31.6 7.2,31.6 L8,31.6 C9.2,31.6 9.8,30.9 9.8,29.6 L9.8,23.8 C9.8,23.2 9.7,22.7 9.4,22.5 C9.1,22.3 8.7,22 8.2,21.6 L4,19.3 C3.1,18.8 2.4,18.4 1.9,18 C1.5,17.7 1.2,17.2 1,16.6 C0.8,16 0.7,15.3 0.7,14.4 L0.7,7.4 C0.7,3.5 2.5,1.6 6.2,1.6 L9,1.6 C12.6,1.6 14.5,3.5 14.5,7.4 L14.5,10.7 L9.9,10.7 L9.9,10.8 Z" id="Path" fill="#0D2E39"></path>
                <path d="M92.3,27.7 L92.3,29.9 C92.3,33.8 90.5,35.7 86.8,35.7 L83.9,35.7 C80.3,35.7 78.4,33.8 78.4,29.9 L78.4,7.4 C78.4,3.5 80.2,1.6 83.9,1.6 L86.8,1.6 C90.4,1.6 92.3,3.5 92.3,7.4 L92.3,11.2 L87.7,11.2 L87.7,7.7 C87.7,6.4 87,5.7 85.7,5.7 L84.8,5.7 C83.6,5.7 83,6.4 83,7.7 L83,29.5 C83,30.8 83.6,31.5 84.8,31.5 L86,31.5 C87.2,31.5 87.8,30.8 87.8,29.5 L87.8,27.6 L92.3,27.6 L92.3,27.7 Z" id="Path" fill="#0D2E39"></path>
                <polygon id="Path" fill="#0D2E39" points="165.7 35.7 165.7 20.2 160.1 20.2 160.1 35.7 155.5 35.7 155.5 1.6 160.1 1.6 160.1 16.1 165.7 16.1 165.7 1.6 170.3 1.6 170.3 35.7"></polygon>
                <path d="M188,35.5 C184.3,35.5 182.5,33.6 182.5,29.7 L182.5,7.2 C182.5,3.3 184.3,1.4 188,1.4 L192.4,1.4 C196,1.4 197.9,3.3 197.9,7.2 L197.9,29.7 C197.9,33.6 196.1,35.5 192.4,35.5 L188,35.5 Z M189.1,31.4 L191.4,31.4 C192.6,31.4 193.2,30.7 193.2,29.4 L193.2,7.6 C193.2,6.3 192.5,5.6 191.2,5.6 L189.1,5.6 C187.8,5.6 187.1,6.3 187.1,7.6 L187.1,29.4 C187.1,30.7 187.7,31.4 189.1,31.4 Z" id="Shape" fill="#0D2E39"></path>
                <path d="M108.7,35.9 L104.1,35.9 L104.1,1.8 L108.7,1.8 L108.7,35.9 Z M119.2,35.9 L114.6,35.9 L109,19.2 L109,18.9 L113.8,1.8 L118,1.8 L113.2,18.8 L119.2,35.9 Z" id="Shape" fill="#0D2E39"></path>
                <polygon id="Path" fill="#0D2E39" points="35.8 18 35.8 1.5 40.4 1.5 40.4 35.6 35.8 35.6 35.8 28.8 30.9 13.3 30.9 35.6 26.3 35.6 26.3 1.5 30.9 1.5"></polygon>
                <path d="M139.1,10.8 L139.1,7.8 C139.1,6.4 138.4,5.8 137.1,5.8 L136.4,5.8 C135.1,5.8 134.5,6.5 134.5,7.8 L134.5,13.5 C134.5,14.1 134.6,14.6 134.9,14.8 C135.2,15 135.6,15.3 136.1,15.7 L140.4,18 C141.3,18.5 142,19 142.4,19.3 C142.8,19.6 143.1,20 143.3,20.4 C143.5,20.8 143.6,21.6 143.6,22.8 L143.6,30 C143.6,33.8 141.8,35.7 138.1,35.7 L135.3,35.7 C131.7,35.7 129.8,33.6 129.8,29.4 L129.8,27.7 L134.4,27.7 L134.4,29.6 C134.4,30.9 135.1,31.6 136.4,31.6 L137.2,31.6 C138.4,31.6 139,30.9 139,29.6 L139,23.8 C139,23.2 138.9,22.7 138.6,22.5 C138.3,22.3 137.9,22 137.4,21.6 L133.1,19.2 C132.2,18.7 131.5,18.3 131,17.9 C130.6,17.6 130.3,17.1 130.1,16.5 C129.9,15.9 129.8,15.2 129.8,14.3 L129.8,7.3 C129.8,3.4 131.6,1.5 135.3,1.5 L138.2,1.5 C141.8,1.5 143.7,3.4 143.7,7.3 L143.7,10.6 L139.1,10.6 L139.1,10.8 L139.1,10.8 Z" id="Path" fill="#0D2E39"></path>
            </g>
        </g>
    </g>
</svg>